<svg id="Layer_1" data-name="Layer 1" xmlns="http://www.w3.org/2000/svg" viewBox="0 0 822.08 281.54"><defs><style>.cls-1{fill:#2d3436;}.cls-2{fill:#ffeb3b;}</style></defs><title>imagin-logo-black</title><path class="cls-1" d="M52,34.25A17.34,17.34,0,0,1,46.72,47,17.33,17.33,0,0,1,34,52.26,17.36,17.36,0,0,1,21.23,47,17.38,17.38,0,0,1,16,34.25,17.4,17.4,0,0,1,21.23,21.5,17.4,17.4,0,0,1,34,16.23,17.36,17.36,0,0,1,46.72,21.5,17.36,17.36,0,0,1,52,34.25ZM18.74,212.08V78.78A15.25,15.25,0,0,1,34,63.4a14.7,14.7,0,0,1,10.76,4.46,15.39,15.39,0,0,1,4.62,10.92v133.3A15.37,15.37,0,0,1,44.74,223,14.67,14.67,0,0,1,34,227.46,14.68,14.68,0,0,1,23.21,223,14.83,14.83,0,0,1,18.74,212.08Z" transform="translate(-15.96 -16.23)"/><path class="cls-1" d="M288.84,212.08A14.86,14.86,0,0,1,284.38,223a15.29,15.29,0,0,1-21.61,0,15,15,0,0,1-4.4-10.91V128.73a33.31,33.31,0,0,0-2.71-13.33,35.63,35.63,0,0,0-7.39-11.06,35.2,35.2,0,0,0-11.06-7.55A34,34,0,0,0,223.51,94,33.09,33.09,0,0,0,210,96.79,36.74,36.74,0,0,0,199,104.27a34.05,34.05,0,0,0-10.19,24.46v83.35A14.86,14.86,0,0,1,184.33,223a15.38,15.38,0,0,1-21.68,0,14.83,14.83,0,0,1-4.47-10.91V128.73a33.06,33.06,0,0,0-2.78-13.48,35.57,35.57,0,0,0-18.46-18.46A33.06,33.06,0,0,0,123.46,94,33.8,33.8,0,0,0,110,96.72a35.08,35.08,0,0,0-18.53,18.53,33.68,33.68,0,0,0-2.71,13.48v83.35A14.83,14.83,0,0,1,84.28,223a14.68,14.68,0,0,1-10.77,4.47,15.26,15.26,0,0,1-15.38-15.38V78.63A15.24,15.24,0,0,1,73.36,63.4a15.16,15.16,0,0,1,9.09,2.85,14.42,14.42,0,0,1,5.42,7.55,62.83,62.83,0,0,1,35.59-10.4A66.56,66.56,0,0,1,151,69.18a62.14,62.14,0,0,1,22.56,17.51Q193.92,63.4,223.51,63.4a62.54,62.54,0,0,1,25.27,5.2,66.13,66.13,0,0,1,34.86,34.86,62.54,62.54,0,0,1,5.2,25.27Z" transform="translate(-15.96 -16.23)"/><path class="cls-1" d="M431.91,212.22v-2.93A83.69,83.69,0,0,1,408,222.77a79.8,79.8,0,0,1-27.53,4.69q-34,0-58-24t-24-58q0-34,24-58t58-24q33.69,0,58,24,24,24,24,58v66.79a15.26,15.26,0,0,1-15.24,15.24A14.83,14.83,0,0,1,436.38,223,14.68,14.68,0,0,1,431.91,212.22ZM380.5,94a50,50,0,0,0-20.22,4.1,51.4,51.4,0,0,0-27.17,27.4,51.25,51.25,0,0,0,0,39.84,51.43,51.43,0,0,0,27.17,27.39,51.52,51.52,0,0,0,40.28,0,52,52,0,0,0,16.34-11.13,52.91,52.91,0,0,0,11-16.33,50.9,50.9,0,0,0,0-39.7,52.8,52.8,0,0,0-11-16.33,52.24,52.24,0,0,0-16.34-11.14A49.58,49.58,0,0,0,380.5,94Z" transform="translate(-15.96 -16.23)"/><path class="cls-1" d="M649.61,172.66a16.51,16.51,0,0,0,10.84,4,16.88,16.88,0,0,0,5.86-1,15.34,15.34,0,0,0,4.84-2.82,14.11,14.11,0,0,0,3.29-4.22,11.09,11.09,0,0,0,1.25-5.12V29.89a12.36,12.36,0,0,0-4.32-9.53,17.22,17.22,0,0,0-21.83,0,12.36,12.36,0,0,0-4.32,9.53V163.45a11.29,11.29,0,0,0,1.17,5.06A13.29,13.29,0,0,0,649.61,172.66Z" transform="translate(-15.96 -16.23)"/><path class="cls-1" d="M831.89,110.05a77.08,77.08,0,0,0-16.7-24.31A80.1,80.1,0,0,0,790.8,69.4a72.7,72.7,0,0,0-29.22-6q-26.37,0-45.85,15.08a15.28,15.28,0,0,0-26.15-10.54,14.92,14.92,0,0,0-4.47,10.84V192.59a44.93,44.93,0,0,1,20.53,34,15,15,0,0,0,5.62-3.6,14.83,14.83,0,0,0,4.47-10.91V139.86a44.24,44.24,0,0,1,3.59-17.72A46.54,46.54,0,0,1,743.78,97.6,44.27,44.27,0,0,1,761.58,94a43.69,43.69,0,0,1,17.72,3.66,46.73,46.73,0,0,1,24.46,24.47,43.63,43.63,0,0,1,3.67,17.72v72.22a15.25,15.25,0,0,0,15.38,15.38A14.67,14.67,0,0,0,833.57,223,14.83,14.83,0,0,0,838,212.08V139.86A73.25,73.25,0,0,0,831.89,110.05Z" transform="translate(-15.96 -16.23)"/><path class="cls-1" d="M615.82,230.46a45,45,0,0,1,19.61-37.15V145.43q0-34-24-58-24.31-24-58-24-34,0-58,24t-24,58q0,34,24,58t58,24q29.43,0,51.41-18v17.43q0,11.58-10.11,23.88-16.4,16.41-40.13,16.41a54.92,54.92,0,0,1-40.29-16.7,76.38,76.38,0,0,1-8.78-10.7q-5-7-7.84-9.08a12.11,12.11,0,0,0-7.25-2.05,15,15,0,0,0-11,4.32A14.66,14.66,0,0,0,475,243.87a14,14,0,0,0,2.34,8.2,88.34,88.34,0,0,0,14.28,19.33,86.08,86.08,0,0,0,18.53,14.51,87.38,87.38,0,0,0,21.39,8.86,89.07,89.07,0,0,0,23,3,84.45,84.45,0,0,0,19.63-2.34A94.4,94.4,0,0,0,593,288.76a84.52,84.52,0,0,0,16.77-10.62A75.3,75.3,0,0,0,623.27,264q1.63-2.26,3.07-4.64A44.83,44.83,0,0,1,615.82,230.46Zm-15-65.18a52.91,52.91,0,0,1-11,16.33,52,52,0,0,1-16.34,11.13,51.52,51.52,0,0,1-40.28,0A51.43,51.43,0,0,1,506,165.35a51.25,51.25,0,0,1,0-39.84,51.4,51.4,0,0,1,27.17-27.4,51.52,51.52,0,0,1,40.28,0,52.24,52.24,0,0,1,16.34,11.14,52.8,52.8,0,0,1,11,16.33,50.9,50.9,0,0,1,0,39.7Z" transform="translate(-15.96 -16.23)"/><circle class="cls-2" cx="644.86" cy="214.23" r="30"/></svg>